Coordinates
version=1
nRows=14
nColumns=33
inDegrees=yes

Units are S.I. units (second, meters, Newtons, ...)
Angles are in degrees.

endheader
time	ground_thorax_rot_x	ground_thorax_rot_y	ground_thorax_rot_z	ground_thorax_tx	ground_thorax_ty	ground_thorax_tz	clav_prot_r	clav_elev_r	scapula_abduction_r	scapula_elevation_r	scapula_upward_rot_r	scapula_winging_r	shoulder_elv_r	plane_of_elev_r	axial_rot_r	elbow_flexion_r	pro_sup_r	wrist_flex_r	wrist_dev_r	clav_prot_l	clav_elev_l	scapula_abduction_l	scapula_elevation_l	scapula_upward_rot_l	scapula_winging_l	shoulder_elv_l	plane_of_elev_l	axial_rot_l	elbow_flexion_l	pro_sup_l	wrist_flex_l	wrist_dev_l
      2.59000000	     38.88058092	      2.40075687	      3.77123833	    -51.24066007	    789.25894729	      1.34031721	     14.74439719	     43.27849299	     45.00000000	     43.72730316	    -18.19824778	  -2238.92752129	  -1373.90464405	     34.48461707	     16.54492964	    367.74000039	     27.55413045	     16.59116752	     14.10231271	      6.03369132	    -45.00000000	    -45.00000000	     45.00000000	     -9.51413873	   1522.14232736	  -3172.35351599	     27.43820267	      6.03019975	   1080.29897168	     44.40937840	     10.86586844	    -19.51665002
      2.60000000	     38.85527403	      2.16169977	      3.75201821	    -51.18852522	    789.58907475	      1.28248630	     14.34225534	     42.82212414	     45.00000000	     43.62785829	    -18.04030693	  -2238.99200531	  -1373.83318811	     34.51303256	     16.60325835	    367.76255413	     26.99980504	     16.53154223	     13.87476711	      6.02656650	    -45.00000000	    -45.00000000	     45.00000000	     -9.13921315	   1522.22287591	  -3172.29739394	     27.29563234	      6.02557593	   1080.16877746	     44.04493727	     11.04538502	    -19.39338448
      2.61000000	     38.79808666	      2.03345616	      3.74791685	    -51.47301679	    789.85606143	      1.23346508	     14.26279711	     42.89159758	     45.00000000	     43.57148311	    -17.71924917	  -2239.20353368	  -1373.86820884	     34.53983757	     16.61111776	    367.77671961	     26.57443794	     16.56053266	     13.99402840	      5.89819553	    -45.00000000	    -45.00000000	     45.00000000	     -9.05978828	   1522.35056773	  -3172.27686618	     27.36383493	      6.01393509	   1079.98726141	     43.66470494	     11.04003106	    -19.36603635
      2.62000000	     38.75665555	      1.86146418	      3.79653002	    -52.06752411	    790.07611453	      1.19152504	     14.14267012	     42.86962458	     45.00000000	     43.60679499	    -17.68364674	  -2239.28125239	  -1373.80029170	     34.53719219	     16.54246580	    367.89141418	     26.15255120	     16.57640794	     13.88276100	      5.86038774	    -45.00000000	    -45.00000000	     45.00000000	     -8.86299230	   1522.52269175	  -3172.20655139	     27.31708321	      6.10473416	   1079.88262829	     43.23221818	     11.15233747	    -19.29172854
      2.63000000	     38.83519415	      1.67266829	      3.80830887	    -52.94554537	    790.24551532	      1.15881153	     14.20437790	     43.32372018	     45.00000000	     44.02314213	    -18.01598806	  -2239.23611996	  -1373.79318942	     34.53240497	     16.22104211	    368.14205538	     25.57870897	     16.61404997	     13.88475045	      5.84451348	    -45.00000000	    -45.00000000	     45.00000000	     -9.02423767	   1522.68560092	  -3172.14859162	     27.33517198	      6.38068311	   1080.00167027	     42.57332788	     11.17463358	    -19.23645174
      2.64000000	     38.65446138	      1.76577741	      4.19148172	    -54.08438948	    790.37473416	      1.13443355	     14.16463861	     42.40004841	     45.00000000	     43.66518602	    -17.83193000	  -2239.70574802	  -1373.84085528	     34.58135605	     15.96225915	    367.89342334	     25.19329134	     16.66849078	     13.97882217	      5.76887295	    -45.00000000	    -45.00000000	     45.00000000	     -8.75031041	   1523.16057623	  -3172.07634212	     27.38214998	      6.65857404	   1079.48845236	     42.11932263	     11.35938817	    -19.18574741
      2.65000000	     38.75543598	      1.62038551	      4.18638378	    -55.46047726	    790.47587212	      1.11678234	     14.12707871	     43.25420841	     45.00000000	     44.19539596	    -18.41587140	  -2239.62128730	  -1373.63973064	     34.51340053	     15.72664249	    368.34410940	     24.65274556	     16.73451366	     13.88575907	      5.79264956	    -45.00000000	    -45.00000000	     45.00000000	     -9.05974130	   1523.24252077	  -3171.98989114	     27.41582996	      7.01427683	   1079.86350584	     41.44764791	     11.35059285	    -19.15795939
      2.66000000	     38.78840526	      1.52987485	      4.35161349	    -57.04960583	    790.56461871	      1.10388368	     14.39706405	     43.76975105	     45.00000000	     44.48094028	    -19.05505802	  -2239.53167254	  -1373.29759123	     34.56001959	     15.10620151	    368.43155613	     23.93842727	     16.74926526	     13.86682736	      5.83514774	    -45.00000000	    -45.00000000	     45.00000000	     -9.34982517	   1523.43315379	  -3171.76946336	     27.50057711	      7.67704832	   1079.61451298	     40.72868934	     11.45333573	    -19.03714127
      2.67000000	     38.73640817	      1.51642754	      4.61584647	    -58.83751522	    790.66142322	      1.09374892	     14.38583359	     43.69119283	     45.00000000	     44.60268972	    -19.52775384	  -2239.66257955	  -1373.09967639	     34.58616747	     14.77941921	    368.58779549	     23.33922824	     16.83380414	     13.91415292	      5.82983064	    -45.00000000	    -45.00000000	     45.00000000	     -9.47627824	   1523.79414825	  -3171.64427442	     27.57569843	      8.16433558	   1079.53721067	     40.13376515	     11.54707999	    -19.00905538
      2.68000000	     38.69036970	      1.54120753	      4.90029357	    -60.81101522	    790.78479919	      1.08433595	     14.48885614	     43.74762683	     45.00000000	     44.75251602	    -20.01469466	  -2239.81243669	  -1372.91792807	     34.58988257	     14.50490225	    368.70738880	     22.73141338	     16.90447637	     13.89338313	      5.85398196	    -45.00000000	    -45.00000000	     45.00000000	     -9.63756952	   1524.13836407	  -3171.51528849	     27.65089003	      8.61909905	   1079.45664457	     39.57096945	     11.62867503	    -18.99444042
      2.69000000	     38.65066820	      1.55421549	      5.20827567	    -62.95624125	    790.95757738	      1.07329784	     14.60003358	     43.91777303	     45.00000000	     44.96421108	    -20.57431142	  -2239.92163879	  -1372.73019867	     34.59058162	     14.27181856	    368.87245344	     22.10168148	     16.98388056	     13.84336479	      5.89288782	    -45.00000000	    -45.00000000	     45.00000000	     -9.85782474	   1524.47846205	  -3171.37758915	     27.70996163	      9.01172955	   1079.44511630	     39.02130321	     11.68987125	    -18.99866848
      2.70000000	     38.50207694	      1.56434199	      5.52445799	    -65.27039414	    791.19726962	      1.05832990	     14.54293847	     42.96614755	     45.00000000	     45.00000000	    -20.71721630	  -2240.31733619	  -1372.89310612	     34.61735414	     14.23829703	    368.98751583	     21.62510621	     17.14399479	     13.94113085	      5.84314797	    -45.00000000	    -45.00000000	     45.00000000	     -9.75265824	   1525.07085091	  -3171.33589607	     27.76480778	      9.26277403	   1079.52574347	     38.56326929	     11.77891954	    -19.11901077
      2.71000000	     38.36485574	      1.66186162	      5.98551295	    -67.75784795	    791.51978981	      1.03666681	     14.60962746	     42.81264743	     45.00000000	     45.00000000	    -21.30552914	  -2240.60719330	  -1372.72218057	     34.70200634	     14.17857059	    369.14727071	     21.11245975	     17.25007159	     13.78881340	      5.83703583	    -45.00000000	    -45.00000000	     45.00000000	     -9.80252714	   1525.59827735	  -3171.22079698	     27.78535295	      9.42047211	   1079.54035623	     38.14521281	     11.82268924	    -19.19640550
      2.72000000	     38.24580135	      1.81014867	      6.39859536	    -70.43813034	    791.93553008	      1.00687809	     15.05403451	     43.82253295	     45.00000000	     45.00000000	    -22.23370974	  -2240.58955199	  -1372.13222838	     34.61375633	     13.83514205	    369.28651832	     20.33543237	     17.26904331	     13.58128264	      6.04586706	    -45.00000000	    -45.00000000	     45.00000000	    -10.46919621	   1525.79602861	  -3170.86299505	     27.86592848	      9.55475996	   1079.59841405	     37.61314121	     11.80179340	    -19.18906994
